PathFileType	4	(X/Y/Z)	22_1_40_p0_0-217.trc
DataRate	CameraRate	NumFrames	NumMarkers	Units	OrigDataRate	OrigDataStartFrame	OrigNumFrames
58.0	58.0	6	27	m	58.0	54	218
Frame#	Time	RHip			RKnee			RAnkle			RBigToe			RSmallToe			RHeel			LHip			LKnee			LAnkle			LBigToe			LSmallToe			LHeel			Neck			Head			Nose			RShoulder			RElbow			RWrist			RThumb			RIndex			RPinky			LShoulder			LElbow			LWrist			LThumb			LIndex			LPinky			
		X1	Y1	Z1	X2	Y2	Z2	X3	Y3	Z3	X4	Y4	Z4	X5	Y5	Z5	X6	Y6	Z6	X7	Y7	Z7	X8	Y8	Z8	X9	Y9	Z9	X10	Y10	Z10	X11	Y11	Z11	X12	Y12	Z12	X13	Y13	Z13	X14	Y14	Z14	X15	Y15	Z15	X16	Y16	Z16	X17	Y17	Z17	X18	Y18	Z18	X19	Y19	Z19	X20	Y20	Z20	X21	Y21	Z21	X22	Y22	Z22	X23	Y23	Z23	X24	Y24	Z24	X25	Y25	Z25	X26	Y26	Z26	X27	Y27	Z27	
54	0.9310344827586207	0.25251103213369736	0.6323544555659986	0.9170469785302988	0.26729019857720976	0.7357741882977756	1.3525835601383316	0.27934736365783375	0.9537120072371978	1.8274060726313825	0.2318636570339386	0.6646585071146875	1.8639483989429917	0.3066871093171002	0.7130259934266113	1.8712721649066975	0.2866216516905809	1.0218713440075915	1.8789454240845662	0.022916604186409416	0.6378916418615158	0.9392929916810439	0.06118145962234934	0.7672251146727603	1.3782584308261505	0.09406263172159257	0.8997623978332081	1.8090813812707074	0.09769785403034047	0.7112698000457037	1.8671933451275702	0.043922847630072176	0.758351757434463	1.8752395636545962	0.1271923030782035	1.0256924460669654	1.8892126072778197	0.07924115970638203	0.41548747566946903	0.40480003293042505	0.06440108865184971	0.29133737236346474	0.17829021440238954	0.061738085228187745	0.2862947254191818	0.331493838503271	0.24718610029125437	0.43548181101574035	0.4494777370749745	0.35594494898920725	0.529822667055534	0.696083124538924	0.23865379666773026	0.3184546288589974	0.7850891282281456	0.13621167684186958	0.2610696431674959	0.7690262546068573	0.1321385732951005	0.17526203271651108	0.7771351951842991	0.15233458989059034	0.1968899266104235	0.8271192127176406	-0.06480170401510052	0.45048641979032333	0.4609081040529222	-0.11944753855919336	0.5512505004372134	0.6853829620761355	-0.05889274573043283	0.38693061385612426	0.88022922620248	-0.0016066872564951653	0.28544532444253	0.9226775598604825	-0.007861901663918551	0.27013574619727987	0.9483682280204229	-0.04760588478525868	0.3540583063527299	0.9629529934340422
55	0.9482758620689655	0.2525793458514047	0.6329215004424141	0.9170036911693599	0.2733725101596596	0.7500308629734597	1.355110995647532	0.2792796785020437	0.9534707754631273	1.8274543349997496	0.23129870938056585	0.6634365156772261	1.8639311731004882	0.3065433090734652	0.7125985872232901	1.871212952307138	0.2879681908946664	1.0236254829286566	1.8850070200796059	0.018506607519447518	0.6244146368914091	0.9388419866216053	0.06124469735301621	0.7673238531818275	1.378398654224358	0.09414973800096743	0.9001340222680195	1.8092282512250912	0.09776228453776836	0.7112699170083064	1.8671533362748898	0.043931883909196556	0.7580988771827917	1.8751056724262443	0.13360426169750336	1.0333247853250487	1.8921366002509488	0.08607937473084887	0.4137119705807052	0.4045720437314908	0.06066220564602918	0.29053653942389546	0.17888508373060918	0.06174971276374243	0.2863272620487281	0.3315665865179136	0.2509660328368737	0.4353692598797265	0.4492201688293834	0.35600094867951854	0.5300451748759933	0.6960863905239838	0.2386238918095702	0.31843288916603624	0.78506658973225	0.1420188169808201	0.24898247288554035	0.768224928862306	0.1319555198377793	0.17502398931622412	0.7769519981712331	0.1523867309040431	0.19612979645872608	0.8239711205062785	-0.06474091611671154	0.4506762753259776	0.46077662841872324	-0.11950940792820804	0.5513900950980046	0.6853803405479306	-0.05860362751657236	0.3863369456437561	0.8770752117347927	-0.001687109426113343	0.28536714426596477	0.9228251120378582	-0.007756615493118098	0.27027678635823893	0.9483429759218622	-0.047659789396205104	0.3540161442749432	0.9628222365010941
56	0.9655172413793104	0.25243531270070035	0.6325246538580246	0.9171098271577358	0.2732829481103853	0.7500653874419615	1.3552418334826293	0.2792314397086805	0.9532212688071022	1.827448919254461	0.23007709480570265	0.6608413153186165	1.8584516848513914	0.30641431914624684	0.7118286351753936	1.870925897241536	0.2881695951045748	1.0230333352532213	1.884843978463725	0.01813585401806211	0.6256735551679059	0.9425257021776527	0.06122758904317902	0.7672730239031754	1.3784229912308341	0.0940351375571951	0.9002180717057373	1.8092999963620773	0.09983346875444042	0.6953930602568784	1.861294279094061	0.04747556348682859	0.740043331642145	1.864911443377958	0.13397779914682692	1.035270112409859	1.8930014102652524	0.08158970617629197	0.40341565682982267	0.4096250247470448	0.06071180094484093	0.2905448848581132	0.1788808066922345	0.06175368136010843	0.2863829746532556	0.331562407038148	0.24582309706238406	0.42398583995555233	0.45079806588352306	0.35587466748043123	0.5301358801143023	0.6960327094310894	0.23837384312977336	0.3190106586974904	0.788092021019268	0.1336744629056763	0.23880259465662249	0.7688433320784647	0.12807345782843166	0.1745826297739363	0.7771134660243567	0.15215822102167087	0.1966058749534951	0.8269801962470905	-0.0648156644393045	0.4513108181416595	0.4641219705357102	-0.11949242845751298	0.5511802401980245	0.6854572278765584	-0.055957472886545914	0.3752976405591196	0.8795498512419238	-0.0016964811762215971	0.2855441208303689	0.9227816408584437	-0.00785715896165934	0.2702912632867775	0.9483288386579787	-0.047619132849915216	0.3540284060791265	0.9627254364812432
57	0.9827586206896551	0.24701674099873788	0.6197528190905648	0.9167527409459578	0.26695598063675535	0.7365710899245438	1.360994318260252	0.27318321567346693	0.9380381036092712	1.8226480012753774	0.22952918041242606	0.6606569905974292	1.8586174122855268	0.30596710583726433	0.7109310566381085	1.8707825863611065	0.28825697096205827	1.0231451157702176	1.8848280436033864	0.01804125976994541	0.6256814366545059	0.9427841875009411	0.061220519664101476	0.7675326020292256	1.3784872058822828	0.0937075011966426	0.9009274669147704	1.8053288173778343	0.09856197693599911	0.6926055262870933	1.8562458415422685	0.04690628606781966	0.7411467543935202	1.8686313084843202	0.13548486749774377	1.038823762080993	1.8940616251993683	0.0814715477864936	0.4032309946030684	0.40976699513456466	0.06078121975035803	0.2907449761956222	0.17920500037526024	0.061743291766143536	0.28644549802669633	0.33162312178907566	0.25105332228227684	0.43466721732111635	0.44954009683063634	0.35503172741374317	0.5277418433868268	0.6920339309037119	0.23825930447469398	0.31914030419453715	0.7880446594431523	0.12715400970008292	0.23942684460165098	0.7732256271518729	0.12725800392256575	0.16417142689119546	0.7798024975561708	0.1475458595929546	0.18694860928067888	0.8275780234889429	-0.06876148402701741	0.45050417386007235	0.4645277534730569	-0.12389566119222248	0.5378806561154228	0.686083680057775	-0.05562775407579442	0.37514962823155434	0.8832295240078236	-0.0026020172081180045	0.28374421543959544	0.9196139045968069	-0.008273356163026963	0.27098065806751714	0.9512925353706916	-0.04756492422013168	0.35424255807963956	0.9629905069022646
58	1.0	0.25258972441902866	0.6320973405040214	0.917257760047202	0.26699251312918193	0.736489266590097	1.3610689147781365	0.2794175582580221	0.9535722305103999	1.8273575401441244	0.22956258511886304	0.6610270268348061	1.8587254189608553	0.3061217255980168	0.7111793570969308	1.8708195213289605	0.28654810444056694	1.0210241448839241	1.8786535777192928	0.02237509614312207	0.6387313073224071	0.9434568359369689	0.06119089637782803	0.7674410834992781	1.3785042422717733	0.093832411227725	0.8999387149318667	1.809124348936167	0.09851537880474029	0.692689138312349	1.8563834831264425	0.046707550007306566	0.7416171406349498	1.8690504112763497	0.1318703027545387	1.0590241406310665	1.8983477236981705	0.0815598799844922	0.4032856146782578	0.4097999367874808	0.06071411403235268	0.2905383149846194	0.17916153966226758	0.06173843245222804	0.28642526476733615	0.331712899098736	0.24773809689747459	0.4112864071413347	0.45205369559341163	0.3549549537822284	0.5293277663411933	0.6943782384616913	0.2388945502071012	0.3204051110001355	0.7916780316588279	0.1254568990249995	0.22751771902081475	0.7729709365812601	0.12508580492044838	0.1535790598900302	0.7794642869048836	0.14681503236657875	0.18729042255470965	0.8316474626613263	-0.06877826901991442	0.4504346164443873	0.46452759044640834	-0.12379451589953187	0.5382798840138755	0.6860577176164385	-0.055656618001534146	0.3751381884883639	0.8832076483024085	-0.002753549817256097	0.28380776363342286	0.9195436486367734	-0.008220701188440578	0.271147862592077	0.9512633111039913	-0.04750852745788585	0.35437723111220604	0.9630422636505179
59	1.0172413793103448	0.25271605874883657	0.6329371829327715	0.9172072116993116	0.26747813090736405	0.7353776419199298	1.3567785125799077	0.27308480755612224	0.9383185575199721	1.8227590488370158	0.22375131699235337	0.6468853579678732	1.8539663932673942	0.3057949508868183	0.7108035318763062	1.8708157791760396	0.28821738715657186	1.0233800862302045	1.8848943577987864	0.022521950676705798	0.6388919294243197	0.9434424520840752	0.062392384857868716	0.7700076648802059	1.3834157826568658	0.09398357082846431	0.9003758784629075	1.8094089981985193	0.09786382947721055	0.6943657392517354	1.8604536761849855	0.04674089335817747	0.7423204946463274	1.869426417180894	0.13407415690003563	1.0638333163198348	1.9022739891814033	0.08154476432878145	0.40306513255260173	0.4097663677406437	0.06076556420947983	0.2904755246626088	0.17915095793715755	0.06173870802853185	0.28638874043571877	0.33178705431207256	0.2528920414768202	0.4223069880667641	0.4506582098469824	0.35502702435968314	0.5295749343108915	0.6943333854894597	0.23849006998999348	0.3211583498330357	0.7948533631479066	0.11278120755162954	0.20752031886374556	0.7797640758110856	0.1177984214458271	0.14662413542150762	0.7896891475240008	0.1528127636240134	0.199628261386391	0.8423452981210664	-0.06869047954529088	0.4497077267498717	0.46116555895334754	-0.12364017443549087	0.5386884977600506	0.6861450272026061	-0.05570095341751655	0.3750619971743476	0.8833352279535919	-0.0026830516945322556	0.2840947990679666	0.9193734160295441	-0.008153370060090552	0.2713644644151124	0.9512962317965861	-0.047452292689177285	0.354760428766922	0.9631667066660489
